<svg width="899" height="223" viewBox="0 0 899 223" fill="none" xmlns="http://www.w3.org/2000/svg">
<path d="M428.852 125.871C423.944 97.7758 407.437 81.7214 384.09 81.7214C373.234 81.7214 364.163 85.4377 358.066 90.9378L358.214 46.7882C358.214 44.1125 355.984 41.8827 353.307 41.8827H331.447C328.77 41.8827 326.539 44.1125 326.539 46.7882V46.3422L326.242 178.345L325.796 201.089V200.792C325.796 203.467 328.026 205.697 330.703 205.697H330.554H373.383C417.698 205.697 437.625 175.967 428.852 125.871ZM373.978 181.764H362.973H363.122C360.445 181.764 358.214 179.534 358.214 176.859V173.44L358.363 120.371C358.363 111.154 366.393 105.654 375.167 105.654C391.377 105.654 395.541 121.56 397.771 134.047C402.827 163.183 389.741 181.764 373.978 181.764Z" fill="#030D3F"/>
<path d="M614.144 197.373C614.144 200.049 616.226 202.13 618.903 202.278H636.302C638.979 202.13 641.061 200.049 641.061 197.373V178.94V112.79L641.358 86.7758C641.358 84.1 639.128 81.8702 636.451 81.8702H596.894C550.05 81.8702 530.123 115.614 538.451 163.034C542.912 188.008 557.486 205.549 582.172 205.549C596.745 205.549 607.304 201.238 614.144 190.535V197.373ZM590.797 182.21C577.71 182.21 572.059 171.805 569.977 159.318C566.408 138.655 568.639 106.398 594.069 105.357H604.776H604.627C607.304 105.357 609.534 107.587 609.534 110.263V111.303L609.683 164.967C609.237 174.034 602.842 182.21 590.797 182.21Z" fill="#030D3F"/>
<path d="M715.416 111.006C718.093 111.452 720.472 110.709 720.918 108.033L724.19 90.6406C724.933 88.4108 723.892 86.0323 721.81 84.8431C717.2 82.9107 711.401 81.7214 705.601 81.7214C694.745 81.7214 683.889 87.9648 678.685 101.789L675.264 86.9243C674.521 84.0999 672.885 81.5728 670.208 81.4241H657.419C654.742 81.4241 652.66 83.6539 652.66 86.3296L652.363 105.357L652.214 197.521C652.363 200.048 654.445 202.13 656.973 202.278H679.577C682.254 202.13 684.336 200.048 684.336 197.373L684.484 129.587C684.782 115.763 692.663 109.073 704.114 109.073C708.278 109.073 712.293 109.817 715.862 111.155L715.416 111.006Z" fill="#030D3F"/>
<path d="M889.853 111.006C892.53 111.452 894.91 110.709 895.356 108.033L898.627 90.6406C899.371 88.4108 898.33 86.0323 896.248 84.8431C891.638 82.9107 885.838 81.7214 880.038 81.7214C869.183 81.7214 858.327 87.9648 853.122 101.789L849.702 86.9243C848.958 84.0999 847.322 81.5728 844.645 81.4241H831.856C829.179 81.4241 827.097 83.6539 827.097 86.3296L826.8 105.357L826.651 197.521C826.8 200.048 828.882 202.13 831.41 202.278H853.717C856.394 202.13 858.475 200.048 858.475 197.373L858.624 129.587C858.922 115.763 866.803 109.073 878.254 109.073C882.418 109.073 886.433 109.817 890.002 111.155L889.853 111.006Z" fill="#030D3F"/>
<path d="M816.539 194.994C818.918 193.656 819.513 190.98 818.323 188.602L810.888 175.372C809.549 173.142 806.724 172.696 804.493 173.885C798.396 177.601 790.366 181.169 780.402 181.169C763.152 181.169 756.46 169.426 754.229 156.939C781.592 156.047 824.272 149.804 817.282 110.113C814.159 92.2752 799.288 81.7209 777.577 81.7209C734.451 81.7209 715.119 119.33 722.108 158.871C726.867 185.926 743.968 205.697 776.238 205.697C795.868 205.697 809.698 199.453 816.539 194.994ZM776.833 104.613C782.633 104.613 787.838 107.884 788.879 114.127C791.407 128.249 772.074 132.857 758.244 133.898C755.568 133.898 753.783 132.263 753.783 128.992C756.014 117.397 762.26 104.613 776.833 104.613Z" fill="#030D3F"/>
<path d="M532.056 194.994C534.436 193.656 535.03 190.98 533.841 188.602L526.405 175.372C525.067 173.142 522.241 172.696 520.011 173.885C513.914 177.601 505.883 181.169 495.92 181.169C478.669 181.169 471.977 169.426 469.747 156.939C497.109 156.047 539.789 149.804 532.8 110.113C529.677 92.2752 514.806 81.7209 493.094 81.7209C449.968 81.7209 430.636 119.33 437.626 158.871C442.384 185.926 459.486 205.697 491.756 205.697C511.534 205.697 525.216 199.453 532.056 194.994ZM492.499 104.613C498.299 104.613 503.504 107.884 504.545 114.127C507.073 128.249 487.741 132.857 473.911 133.898C471.234 133.898 469.449 132.263 469.449 128.992C471.531 117.397 477.926 104.613 492.499 104.613Z" fill="#030D3F"/>
<path d="M38.8832 112.725L43.5864 117.517C44.4682 118.389 45.4971 118.824 46.6729 118.824C46.8199 118.824 46.9668 118.824 47.1138 118.824C47.9957 118.679 48.8775 118.389 49.6124 117.662C50.4942 116.936 50.9352 115.775 50.9352 114.758C50.9352 113.596 50.4942 112.58 49.7594 111.709L44.9092 106.771C43.1455 109.095 41.0878 111.128 38.8832 112.725Z" fill="url(#paint0_linear)"/>
<path d="M101.021 60.1552L105.871 73.4291C106.459 75.0336 108.076 76.2005 109.84 76.2005C110.281 76.2005 110.868 76.0547 111.309 75.9088C113.514 75.1795 114.69 72.6997 113.808 70.5117L108.958 57.3838C106.459 58.6966 103.814 59.5718 101.021 60.1552Z" fill="url(#paint1_linear)"/>
<path d="M176.148 56.2815L170.506 71.867C169.764 74.0725 170.803 76.5721 173.03 77.3072C173.475 77.4543 174.069 77.6013 174.515 77.6013H174.663C176.445 77.6013 177.929 76.425 178.523 74.8077L184.165 59.3692C182.383 58.9281 180.601 58.487 178.82 57.7518C177.929 57.1637 177.038 56.7226 176.148 56.2815Z" fill="url(#paint2_linear)"/>
<path d="M229.625 133.592C229.919 133.592 230.065 133.592 230.359 133.592C231.682 133.592 232.858 132.997 233.74 131.958L238.884 125.572C236.385 124.086 234.181 122.156 232.417 119.779L226.979 126.463C225.509 128.245 225.803 131.067 227.567 132.552C228.155 133.146 228.89 133.443 229.625 133.592Z" fill="url(#paint3_linear)"/>
<path d="M231.145 154.357C225.947 152.42 220.304 151.674 214.809 152.122C209.314 152.569 203.82 154.357 198.771 157.04C198.176 157.339 197.434 157.189 197.137 156.593C196.84 155.997 196.988 155.401 197.434 154.954C199.513 153.314 201.741 151.973 204.117 150.78V144.073C204.117 108.896 175.604 80.2776 140.556 80.2776C111.152 80.2776 85.9056 100.102 78.7773 128.422C80.8564 129.167 82.9355 130.062 84.8661 131.105C88.7272 133.043 92.2914 135.577 95.5585 138.558C98.6772 141.539 101.499 144.818 103.726 148.544C104.32 149.588 104.023 150.78 102.984 151.376C102.093 151.973 100.905 151.674 100.311 150.929C97.7861 147.799 95.113 145.116 91.9944 142.731C89.0243 140.346 85.6086 138.26 82.193 136.769C75.2132 133.639 67.4908 132.148 59.917 132.745C52.3432 133.192 44.9178 135.875 38.5321 139.899C35.4134 141.986 32.4433 144.52 29.9187 147.352C27.2456 150.184 25.1665 153.314 23.3844 156.742C16.4046 170.306 16.7016 187.447 24.8695 200.415C28.7306 206.974 34.3739 212.339 40.9082 216.215C47.4424 220.09 55.0163 222.028 62.7386 222.177L218.967 222.922C229.808 222.922 240.501 217.705 246.887 208.911C253.569 200.266 255.5 188.491 252.53 177.908C249.708 167.176 241.54 158.084 231.145 154.357Z" fill="url(#paint4_linear)"/>
<path d="M83.4221 51.4344C86.7154 52.7822 90.0088 53.5309 93.4518 53.5309C104.08 53.5309 113.661 47.0914 117.852 37.3573C123.391 23.8793 117.104 8.45444 103.631 2.91348C100.488 1.56567 97.0445 0.816895 93.6015 0.816895C82.973 0.816895 73.3924 7.25639 69.2008 16.9905C66.5063 23.43 66.5063 30.6183 69.2008 37.2076C71.8954 43.647 76.9851 48.7387 83.4221 51.4344Z" fill="#9DACE3"/>
<path d="M181.487 51.4344C184.781 52.7822 188.074 53.5309 191.517 53.5309C202.145 53.5309 211.726 47.0914 215.918 37.3573C221.456 23.8793 215.169 8.45444 201.696 2.91348C198.403 1.56567 195.11 0.816895 191.667 0.816895C181.038 0.816895 171.458 7.25639 167.266 16.9905C161.727 30.4685 168.015 45.8934 181.487 51.4344Z" fill="#9DACE3"/>
<path d="M265.713 95.272C263.318 91.3784 259.575 88.533 255.084 87.335C253.737 87.0355 252.24 86.736 250.893 86.736C242.959 86.736 236.073 92.1272 234.127 99.7647C231.881 109.05 237.42 118.334 246.701 120.731C248.048 121.03 249.545 121.33 250.893 121.33C258.827 121.33 265.713 115.938 267.659 108.301C268.856 103.958 268.108 99.3155 265.713 95.272Z" fill="#9DACE3"/>
<path d="M43.1944 95.3532C46.0386 83.822 39.0029 71.9913 27.4762 69.1459C25.6798 68.6966 23.8834 68.5469 22.2368 68.5469C12.3568 68.5469 3.67432 75.2859 1.27916 84.8703C-0.0681142 90.4112 0.830069 96.2517 3.67432 101.194C6.66826 106.136 11.3089 109.73 16.9974 111.078C18.7937 111.527 20.5901 111.677 22.2368 111.677C32.2665 111.826 40.7992 105.087 43.1944 95.3532Z" fill="#9DACE3"/>
<defs>
<linearGradient id="paint0_linear" x1="38.8256" y1="112.877" x2="50.8599" y2="112.877" gradientUnits="userSpaceOnUse">
<stop stop-color="#00A9E2"/>
<stop offset="0.1882" stop-color="#1981D7"/>
<stop offset="0.4572" stop-color="#394DC8"/>
<stop offset="0.6919" stop-color="#5027BE"/>
<stop offset="0.8802" stop-color="#5F10B7"/>
<stop offset="0.9987" stop-color="#6408B5"/>
</linearGradient>
<linearGradient id="paint1_linear" x1="100.969" y1="66.8136" x2="114.128" y2="66.8136" gradientUnits="userSpaceOnUse">
<stop stop-color="#00A9E2"/>
<stop offset="0.1882" stop-color="#1981D7"/>
<stop offset="0.4572" stop-color="#394DC8"/>
<stop offset="0.6919" stop-color="#5027BE"/>
<stop offset="0.8802" stop-color="#5F10B7"/>
<stop offset="0.9987" stop-color="#6408B5"/>
</linearGradient>
<linearGradient id="paint2_linear" x1="170.189" y1="66.9018" x2="184.273" y2="66.9018" gradientUnits="userSpaceOnUse">
<stop stop-color="#00A9E2"/>
<stop offset="0.1882" stop-color="#1981D7"/>
<stop offset="0.4572" stop-color="#394DC8"/>
<stop offset="0.6919" stop-color="#5027BE"/>
<stop offset="0.8802" stop-color="#5F10B7"/>
<stop offset="0.9987" stop-color="#6408B5"/>
</linearGradient>
<linearGradient id="paint3_linear" x1="226.052" y1="126.756" x2="238.854" y2="126.756" gradientUnits="userSpaceOnUse">
<stop stop-color="#00A9E2"/>
<stop offset="0.1882" stop-color="#1981D7"/>
<stop offset="0.4572" stop-color="#394DC8"/>
<stop offset="0.6919" stop-color="#5027BE"/>
<stop offset="0.8802" stop-color="#5F10B7"/>
<stop offset="0.9987" stop-color="#6408B5"/>
</linearGradient>
<linearGradient id="paint4_linear" x1="18.621" y1="151.491" x2="254.06" y2="151.491" gradientUnits="userSpaceOnUse">
<stop stop-color="#00A9E2"/>
<stop offset="0.1882" stop-color="#1981D7"/>
<stop offset="0.4572" stop-color="#394DC8"/>
<stop offset="0.6919" stop-color="#5027BE"/>
<stop offset="0.8802" stop-color="#5F10B7"/>
<stop offset="0.9987" stop-color="#6408B5"/>
</linearGradient>
</defs>
</svg>
